<?xml version="1.0" encoding="iso-8859-1"?>
<!-- Generator: Adobe Illustrator 19.0.0, SVG Export Plug-In . SVG Version: 6.00 Build 0)  -->
<svg version="1.1" id="Layer_1" xmlns="http://www.w3.org/2000/svg" xmlns:xlink="http://www.w3.org/1999/xlink" x="0px" y="0px"
	 viewBox="0 0 509.287 509.287" style="enable-background:new 0 0 509.287 509.287;" xml:space="preserve">
<circle style="fill:#FBD303;" cx="254.644" cy="254.644" r="254.644"/>
<path style="fill:#74594E;" d="M469.955,297.706L267.868,160.721l-24.413,36.281l202.087,136.985
	c9.833,6.781,23.396,4.069,30.177-5.764C482.501,318.05,479.788,304.487,469.955,297.706z"/>
<rect x="260.717" y="165.254" transform="matrix(-0.8276 -0.5613 0.5613 -0.8276 399.777 510.9321)" style="fill:#886C60;" width="35.263" height="57.642"/>
<path style="fill:#74594E;" d="M243.793,262.781c-51.539-4.408-88.837-29.499-111.894-75.952
	c47.131-29.499,75.952-71.544,85.785-126.474c51.539,4.408,88.837,29.499,111.894,75.952
	C282.109,166.146,253.626,208.191,243.793,262.781z"/>
<g>
	<path style="fill:#886C60;" d="M353.314,101.722L241.081,25.43c-3.391-2.374-7.799-1.356-9.833,2.034L210.225,58.66
		c-2.374,3.391-1.356,7.799,2.034,9.833l111.894,75.952c3.391,2.374,7.799,1.356,9.833-2.034l21.022-31.195
		C357.383,108.503,356.705,104.095,353.314,101.722z"/>
	<path style="fill:#886C60;" d="M251.253,252.609l-112.572-76.291c-3.391-2.374-7.799-1.356-9.833,2.034l-21.023,31.195
		c-2.374,3.391-1.356,7.799,2.034,9.833l112.233,76.291c3.391,2.374,7.799,1.356,9.833-2.034l21.023-31.195
		C255.322,259.052,254.305,254.644,251.253,252.609z"/>
</g>
<path style="fill:#FCFCFD;" d="M309.573,368.572H144.784c-36.959,0-66.797,29.838-66.797,66.797l0,0h298.045l0,0
	C376.371,398.75,346.193,368.572,309.573,368.572z"/>
<g>
</g>
<g>
</g>
<g>
</g>
<g>
</g>
<g>
</g>
<g>
</g>
<g>
</g>
<g>
</g>
<g>
</g>
<g>
</g>
<g>
</g>
<g>
</g>
<g>
</g>
<g>
</g>
<g>
</g>
</svg>
